HIERARCHY
ROOT hip
{
  OFFSET 0 90.174 2.4664
  CHANNELS 6 Xposition Yposition Zposition Zrotation Xrotation Yrotation
  JOINT abdomen
  {
    OFFSET 0 -1.186 -1.5018
    CHANNELS 6 Xposition Yposition Zposition Zrotation Xrotation Yrotation
    JOINT abdomen2
    {
      OFFSET 0 9.964 0.2134
      CHANNELS 6 Xposition Yposition Zposition Zrotation Xrotation Yrotation
      JOINT chest
      {
        OFFSET 0 13.134 -3.2573
        CHANNELS 6 Xposition Yposition Zposition Zrotation Xrotation Yrotation
        JOINT neck
        {
          OFFSET 0 20.686 -1.6905
          CHANNELS 6 Xposition Yposition Zposition Zrotation Xrotation Yrotation
          JOINT head
          {
            OFFSET 0 7.238 -0.1237
            CHANNELS 6 Xposition Yposition Zposition Zrotation Xrotation Yrotation
            End Site
            {
              OFFSET 0 0 0
            }
          }
        }
        JOINT lCollar
        {
          OFFSET 1.7069 20.075 5.0056
          CHANNELS 6 Xposition Yposition Zposition Zrotation Xrotation Yrotation
          JOINT lShldr
          {
            OFFSET 13.6458 -0.047 -4.849
            CHANNELS 6 Xposition Yposition Zposition Zrotation Xrotation Yrotation
            JOINT lForeArm
            {
              OFFSET 28.3255 -0.9759 2.2888
              CHANNELS 6 Xposition Yposition Zposition Zrotation Xrotation Yrotation
              JOINT lHand
              {
                OFFSET 22.1583 -0.53 10.8316
                CHANNELS 6 Xposition Yposition Zposition Zrotation Xrotation Yrotation
                JOINT lThumb1
                {
                  OFFSET 0.786 0.112 2.5817
                  CHANNELS 6 Xposition Yposition Zposition Zrotation Xrotation Yrotation
                  JOINT lThumb2
                  {
                    OFFSET 0.3601 -0.878 4.2331
                    CHANNELS 6 Xposition Yposition Zposition Zrotation Xrotation Yrotation
                    JOINT lThumb2_End
                    {
                      OFFSET 1.8127 -1.216 2.2227
                      CHANNELS 6 Xposition Yposition Zposition Zrotation Xrotation Yrotation
                      End Site
                      {
                        OFFSET 0.0181 -0.0122 0.0222
                      }
                    }
                  }
                }
                JOINT lCarpal1
                {
                  OFFSET 0.9571 1.114 1.7695
                  CHANNELS 6 Xposition Yposition Zposition Zrotation Xrotation Yrotation
                  JOINT lIndex1
                  {
                    OFFSET 4.1246 0.487 4.1451
                    CHANNELS 6 Xposition Yposition Zposition Zrotation Xrotation Yrotation
                    JOINT lIndex2
                    {
                      OFFSET 3.4052 -1.454 2.7682
                      CHANNELS 6 Xposition Yposition Zposition Zrotation Xrotation Yrotation
                      JOINT lIndex2_End
                      {
                        OFFSET 1.4531 -1.795 1.2713
                        CHANNELS 6 Xposition Yposition Zposition Zrotation Xrotation Yrotation
                        End Site
                        {
                          OFFSET 0.0145 -0.0179 0.0127
                        }
                      }
                    }
                  }
                  JOINT lMid1
                  {
                    OFFSET 5.6954 0.21 2.1184
                    CHANNELS 6 Xposition Yposition Zposition Zrotation Xrotation Yrotation
                    JOINT lMid2
                    {
                      OFFSET 3.9766 -1.54 2.3863
                      CHANNELS 6 Xposition Yposition Zposition Zrotation Xrotation Yrotation
                      JOINT lMid2_End
                      {
                        OFFSET 1.4042 -1.926 1.125
                        CHANNELS 6 Xposition Yposition Zposition Zrotation Xrotation Yrotation
                        End Site
                        {
                          OFFSET 0.014 -0.0193 0.0113
                        }
                      }
                    }
                  }
                }
                JOINT lCarpal2
                {
                  OFFSET 2.0956 0.66 -0.3894
                  CHANNELS 6 Xposition Yposition Zposition Zrotation Xrotation Yrotation
                  JOINT lRing1
                  {
                    OFFSET 5.0395 -0.09 2.4971
                    CHANNELS 6 Xposition Yposition Zposition Zrotation Xrotation Yrotation
                    JOINT lRing2
                    {
                      OFFSET 3.7921 -1.552 1.4806
                      CHANNELS 6 Xposition Yposition Zposition Zrotation Xrotation Yrotation
                      JOINT lRing2_End
                      {
                        OFFSET 1.4655 -1.808 0.9609
                        CHANNELS 6 Xposition Yposition Zposition Zrotation Xrotation Yrotation
                        End Site
                        {
                          OFFSET 0.0147 -0.0181 0.0096
                        }
                      }
                    }
                  }
                  JOINT lPinky1
                  {
                    OFFSET 4.9141 -1.269 0.3591
                    CHANNELS 6 Xposition Yposition Zposition Zrotation Xrotation Yrotation
                    JOINT lPinky2
                    {
                      OFFSET 3.1477 -1.685 0.8462
                      CHANNELS 6 Xposition Yposition Zposition Zrotation Xrotation Yrotation
                      JOINT lPinky2_End
                      {
                        OFFSET 0.8055 -1.585 0.7955
                        CHANNELS 6 Xposition Yposition Zposition Zrotation Xrotation Yrotation
                        End Site
                        {
                          OFFSET 0.0081 -0.0158 0.008
                        }
                      }
                    }
                  }
                }
              }
            }
          }
        }
        JOINT rCollar
        {
          OFFSET -1.7069 20.075 5.0056
          CHANNELS 6 Xposition Yposition Zposition Zrotation Xrotation Yrotation
          JOINT rShldr
          {
            OFFSET -13.6458 -0.047 -4.849
            CHANNELS 6 Xposition Yposition Zposition Zrotation Xrotation Yrotation
            JOINT rForeArm
            {
              OFFSET -28.3255 -0.9759 2.2888
              CHANNELS 6 Xposition Yposition Zposition Zrotation Xrotation Yrotation
              JOINT rHand
              {
                OFFSET -22.1583 -0.53 10.8316
                CHANNELS 6 Xposition Yposition Zposition Zrotation Xrotation Yrotation
                JOINT rThumb1
                {
                  OFFSET -0.786 0.112 2.5817
                  CHANNELS 6 Xposition Yposition Zposition Zrotation Xrotation Yrotation
                  JOINT rThumb2
                  {
                    OFFSET -0.3601 -0.878 4.2331
                    CHANNELS 6 Xposition Yposition Zposition Zrotation Xrotation Yrotation
                    JOINT rThumb2_End
                    {
                      OFFSET -1.8127 -1.216 2.2227
                      CHANNELS 6 Xposition Yposition Zposition Zrotation Xrotation Yrotation
                      End Site
                      {
                        OFFSET -0.0181 -0.0122 0.0222
                      }
                    }
                  }
                }
                JOINT rCarpal1
                {
                  OFFSET -0.9571 1.114 1.7695
                  CHANNELS 6 Xposition Yposition Zposition Zrotation Xrotation Yrotation
                  JOINT rIndex1
                  {
                    OFFSET -4.1246 0.487 4.1451
                    CHANNELS 6 Xposition Yposition Zposition Zrotation Xrotation Yrotation
                    JOINT rIndex2
                    {
                      OFFSET -3.4052 -1.454 2.7682
                      CHANNELS 6 Xposition Yposition Zposition Zrotation Xrotation Yrotation
                      JOINT rIndex2_End
                      {
                        OFFSET -1.4531 -1.795 1.2713
                        CHANNELS 6 Xposition Yposition Zposition Zrotation Xrotation Yrotation
                        End Site
                        {
                          OFFSET -0.0145 -0.018 0.0127
                        }
                      }
                    }
                  }
                  JOINT rMid1
                  {
                    OFFSET -5.6954 0.21 2.1184
                    CHANNELS 6 Xposition Yposition Zposition Zrotation Xrotation Yrotation
                    JOINT rMid2
                    {
                      OFFSET -3.9766 -1.54 2.3863
                      CHANNELS 6 Xposition Yposition Zposition Zrotation Xrotation Yrotation
                      JOINT rMid2_End
                      {
                        OFFSET -1.4042 -1.926 1.125
                        CHANNELS 6 Xposition Yposition Zposition Zrotation Xrotation Yrotation
                        End Site
                        {
                          OFFSET -0.014 -0.0193 0.0113
                        }
                      }
                    }
                  }
                }
                JOINT rCarpal2
                {
                  OFFSET -2.0956 0.66 -0.3894
                  CHANNELS 6 Xposition Yposition Zposition Zrotation Xrotation Yrotation
                  JOINT rRing1
                  {
                    OFFSET -5.0395 -0.09 2.4971
                    CHANNELS 6 Xposition Yposition Zposition Zrotation Xrotation Yrotation
                    JOINT rRing2
                    {
                      OFFSET -3.7921 -1.552 1.4806
                      CHANNELS 6 Xposition Yposition Zposition Zrotation Xrotation Yrotation
                      JOINT rRing2_End
                      {
                        OFFSET -1.4655 -1.808 0.9609
                        CHANNELS 6 Xposition Yposition Zposition Zrotation Xrotation Yrotation
                        End Site
                        {
                          OFFSET -0.0147 -0.0181 0.0096
                        }
                      }
                    }
                  }
                  JOINT rPinky1
                  {
                    OFFSET -4.9141 -1.269 0.3592
                    CHANNELS 6 Xposition Yposition Zposition Zrotation Xrotation Yrotation
                    JOINT rPinky2
                    {
                      OFFSET -3.1477 -1.685 0.8462
                      CHANNELS 6 Xposition Yposition Zposition Zrotation Xrotation Yrotation
                      JOINT rPinky2_End
                      {
                        OFFSET -0.8055 -1.585 0.7955
                        CHANNELS 6 Xposition Yposition Zposition Zrotation Xrotation Yrotation
                        End Site
                        {
                          OFFSET -0.0081 -0.0158 0.008
                        }
                      }
                    }
                  }
                }
              }
            }
          }
        }
      }
    }
  }
  JOINT lThigh
  {
    OFFSET 8.367 -8.2066 0.5982
    CHANNELS 6 Xposition Yposition Zposition Zrotation Xrotation Yrotation
    JOINT lShin
    {
      OFFSET 2.1923 -43.463 -0.4932
      CHANNELS 6 Xposition Yposition Zposition Zrotation Xrotation Yrotation
      JOINT lFoot
      {
        OFFSET 0.7333 -45.8593 -2.6451
        CHANNELS 6 Xposition Yposition Zposition Zrotation Xrotation Yrotation
        End Site
        {
          OFFSET 2.6618 -4.2699 12.3931
        }
      }
    }
  }
  JOINT rThigh
  {
    OFFSET -8.367 -8.2066 0.5982
    CHANNELS 6 Xposition Yposition Zposition Zrotation Xrotation Yrotation
    JOINT rShin
    {
      OFFSET -2.1923 -43.463 -0.4931
      CHANNELS 6 Xposition Yposition Zposition Zrotation Xrotation Yrotation
      JOINT rFoot
      {
        OFFSET -0.7333 -45.8593 -2.6451
        CHANNELS 6 Xposition Yposition Zposition Zrotation Xrotation Yrotation
        End Site
        {
          OFFSET -2.6618 -4.2699 12.3931
        }
      }
    }
  }
}
MOTION
Frames:	4
Frame Time:	0.0333333
0 90.174 2.4664 0 0 -0 0 -1.186 -1.5018 0 0 -0 0 9.964 0.2134 0 0 -0 0 13.134 -3.2573 0 0 -0 0 20.686 -1.6905 0 0 -0 0 7.238 -0.1237 0 0 -0 1.7069 20.075 5.0056 0 0 -0 13.6458 -0.047 -4.849 1.66051 0.0835086 5.75766 28.3255 -0.9759 2.2888 -0.0175111 0.895433 15.7816 22.1583 -0.53 10.8316 7.95139e-016 -1.98785e-016 -0 0.786 0.112 2.5817 5.46658e-016 -3.97569e-016 -0 0.3601 -0.878 4.2331 5.96354e-016 0 -0 1.8127 -1.216 2.2227 3.97569e-016 1.98785e-016 9.54166e-015 0.9571 1.114 1.7695 1.49089e-016 -3.97569e-016 -0 4.1246 0.487 4.1451 6.4605e-016 0 3.18055e-015 3.4052 -1.454 2.7682 5.96354e-016 0 3.18055e-015 1.4531 -1.795 1.2713 8.94531e-016 -1.98785e-016 6.36111e-015 5.6954 0.21 2.1184 6.4605e-016 0 3.18055e-015 3.9766 -1.54 2.3863 5.96354e-016 0 3.18055e-015 1.4042 -1.926 1.125 8.94531e-016 -1.98785e-016 6.36111e-015 2.0956 0.66 -0.3894 1.49089e-016 -3.97569e-016 -0 5.0395 -0.09 2.4971 6.4605e-016 0 3.18055e-015 3.7921 -1.552 1.4806 5.96354e-016 0 3.18055e-015 1.4655 -1.808 0.9609 8.94531e-016 -1.98785e-016 6.36111e-015 4.9141 -1.269 0.3591 6.4605e-016 0 3.18055e-015 3.1477 -1.685 0.8462 5.96354e-016 0 3.18055e-015 0.8055 -1.585 0.7955 8.94531e-016 -1.98785e-016 6.36111e-015 -1.7069 20.075 5.0056 0 0 -0 -13.6458 -0.047 -4.849 -1.4496 0.0636048 -5.0245 -28.3255 -0.9759 2.2888 -1.74811 1.20616 -16.8394 -22.1583 -0.53 10.8316 -1.19271e-015 1.98785e-016 -3.18055e-015 -0.786 0.112 2.5817 -3.97569e-016 1.98785e-016 -3.18055e-015 -0.3601 -0.878 4.2331 -2.98177e-016 1.98785e-016 -3.18055e-015 -1.8127 -1.216 2.2227 -2.98177e-016 3.97569e-016 -0 -0.9571 1.114 1.7695 4.96962e-016 0 -6.36111e-015 -4.1246 0.487 4.1451 -9.93923e-017 3.97569e-016 -0 -3.4052 -1.454 2.7682 -8.94531e-016 5.96354e-016 -0 -1.4531 -1.795 1.2713 -3.97569e-016 3.97569e-016 -0 -5.6954 0.21 2.1184 -9.93923e-017 3.97569e-016 -0 -3.9766 -1.54 2.3863 -8.94531e-016 5.96354e-016 -0 -1.4042 -1.926 1.125 -3.97569e-016 3.97569e-016 -0 -2.0956 0.66 -0.3894 4.96962e-016 0 -6.36111e-015 -5.0395 -0.09 2.4971 -9.93923e-017 3.97569e-016 -0 -3.7921 -1.552 1.4806 -8.94531e-016 5.96354e-016 -0 -1.4655 -1.808 0.9609 -3.97569e-016 3.97569e-016 -0 -4.9141 -1.269 0.3592 -9.93923e-017 3.97569e-016 -0 -3.1477 -1.685 0.8462 -8.94531e-016 5.96354e-016 -0 -0.8055 -1.585 0.7955 -3.97569e-016 3.97569e-016 -0 8.367 -8.2066 0.5982 -4.66115 -1.03232 0.120763 2.1923 -43.463 -0.4932 0.00990601 1.55097 0.177175 0.7333 -45.8593 -2.6451 4.65196 -0.54114 -0.255042 -8.367 -8.2066 0.5982 4.66115 -1.03222 -0.120763 -2.1923 -43.463 -0.4931 -0.00990459 1.5509 -0.177176 -0.7333 -45.8593 -2.6451 -4.65196 -0.541171 0.255041 
1.73647 42.9842 10.6947 0 33.9971 -0 0 -1.186 -1.5018 0.254565 -1.57585 -0.240088 2.22045e-016 9.964 0.2134 0.502805 -3.15273 -0.473435 -4.44089e-016 13.134 -3.2573 0.502805 -3.15273 -0.473436 -4.44089e-016 20.686 -1.6905 1.31764e-005 -0.477426 -1.03683e-005 -4.44089e-016 7.238 -0.1237 1.90087e-007 -0.571769 -6.24722e-007 1.7069 20.075 5.0056 -20.6556 16.9151 -32.7052 13.6458 -0.047 -4.849 -15.148 -5.56897 -0.121865 28.3255 -0.9759 2.2888 -21.0319 19.5601 -43.1759 22.1583 -0.53 10.8316 6.91882 -31.0888 -2.35615 0.786 0.112 2.5817 5.69471e-008 2.41757e-006 -2.15225e-006 0.3601 -0.878 4.2331 3.85788e-007 4.29707e-006 -4.9089e-006 1.8127 -1.216 2.2227 8.72627e-007 8.03377e-007 -3.96543e-006 0.9571 1.114 1.7695 0 0 -0 4.1246 0.487 4.1451 5.69471e-008 2.41757e-006 -2.15225e-006 3.4052 -1.454 2.7682 3.85788e-007 4.29707e-006 -4.9089e-006 1.4531 -1.795 1.2713 8.72627e-007 8.03377e-007 -3.96543e-006 5.6954 0.21 2.1184 5.69471e-008 2.41757e-006 -2.15225e-006 3.9766 -1.54 2.3863 3.85788e-007 4.29707e-006 -4.9089e-006 1.4042 -1.926 1.125 8.72627e-007 8.03377e-007 -3.96543e-006 2.0956 0.66 -0.3894 0 0 -0 5.0395 -0.09 2.4971 5.69471e-008 2.41757e-006 -2.15225e-006 3.7921 -1.552 1.4806 3.85788e-007 4.29707e-006 -4.9089e-006 1.4655 -1.808 0.9609 8.72627e-007 8.03377e-007 -3.96543e-006 4.9141 -1.269 0.3591 5.69471e-008 2.41757e-006 -2.15225e-006 3.1477 -1.685 0.8462 3.85788e-007 4.29707e-006 -4.9089e-006 0.8055 -1.585 0.7955 8.72627e-007 8.03377e-007 -3.96543e-006 -1.7069 20.075 5.0056 8.86101 -7.03035 16.3264 -13.6458 -0.047 -4.849 7.48916 19.5771 23.5687 -28.3255 -0.9759 2.2888 -2.86585 -0.40372 2.53254 -22.1583 -0.53 10.8316 8.33061 -7.42988 5.08975 -0.786 0.112 2.5817 -3.53113e-031 -6.36111e-015 -3.18055e-015 -0.3601 -0.878 4.2331 -7.58054e-007 9.87574e-007 2.96734e-006 -1.8127 -1.216 2.2227 6.36111e-015 -6.36111e-015 -3.18055e-015 -0.9571 1.114 1.7695 1.76556e-031 3.18055e-015 -3.18055e-015 -4.1246 0.487 4.1451 -3.18055e-015 -9.54166e-015 -0 -3.4052 -1.454 2.7682 -7.58054e-007 9.87574e-007 2.96734e-006 -1.4531 -1.795 1.2713 3.18055e-015 0 1.27222e-014 -5.6954 0.21 2.1184 -3.18055e-015 -9.54166e-015 -0 -3.9766 -1.54 2.3863 -7.58054e-007 9.87574e-007 2.96734e-006 -1.4042 -1.926 1.125 3.18055e-015 0 1.27222e-014 -2.0956 0.66 -0.3894 1.76556e-031 3.18055e-015 -3.18055e-015 -5.0395 -0.09 2.4971 -3.18055e-015 -9.54166e-015 -0 -3.7921 -1.552 1.4806 -7.58054e-007 9.87574e-007 2.96734e-006 -1.4655 -1.808 0.9609 3.18055e-015 0 1.27222e-014 -4.9141 -1.269 0.3592 -3.18055e-015 -9.54166e-015 -0 -3.1477 -1.685 0.8462 -7.58054e-007 9.87574e-007 2.96734e-006 -0.8055 -1.585 0.7955 3.18055e-015 0 1.27222e-014 8.367 -8.2066 0.5982 9.38923 -36.081 19.9439 2.1923 -43.463 -0.4932 138.037 86.8604 -133.768 0.7333 -45.8593 -2.6451 -21.4404 53.7885 29.0398 -8.367 -8.2066 0.5982 -9.42091 -36.0826 -19.9861 -2.1923 -43.463 -0.4931 -137.47 86.824 133.211 -0.7333 -45.8593 -2.6451 21.5644 53.9708 -29.1613 
1.73646 43.0895 11.0723 0 32.5632 -0 0 -1.186 -1.5018 0.249896 -0.980741 -0.244945 0 9.964 0.2134 0.495704 -1.96248 -0.485715 -4.44089e-016 13.134 -3.2573 0.495704 -1.96248 -0.485715 -4.44089e-016 20.686 -1.6905 -2.73955e-005 -0.94897 2.36145e-005 -4.44089e-016 7.238 -0.1237 7.64046e-008 -0.824721 4.98509e-007 1.7069 20.075 5.0056 -20.0044 16.4973 -32.6702 13.6458 -0.047 -4.849 -15.148 -5.56898 -0.121869 28.3255 -0.9759 2.2888 -21.249 19.9669 -44.1598 22.1583 -0.53 10.8316 8.25016 -31.1906 -2.22069 0.786 0.112 2.5817 -3.54604e-007 -3.07488e-006 1.65204e-006 0.3601 -0.878 4.2331 -5.18723e-007 2.27999e-006 2.31511e-006 1.8127 -1.216 2.2227 -2.71874e-007 5.39358e-007 6.03241e-007 0.9571 1.114 1.7695 3.18055e-015 0 -3.18055e-015 4.1246 0.487 4.1451 -3.54604e-007 -3.07488e-006 1.65204e-006 3.4052 -1.454 2.7682 -5.18723e-007 2.27999e-006 2.31511e-006 1.4531 -1.795 1.2713 -2.71874e-007 5.39358e-007 6.03241e-007 5.6954 0.21 2.1184 -3.54604e-007 -3.07488e-006 1.65204e-006 3.9766 -1.54 2.3863 -5.18723e-007 2.27999e-006 2.31511e-006 1.4042 -1.926 1.125 -2.71874e-007 5.39358e-007 6.03241e-007 2.0956 0.66 -0.3894 3.18055e-015 0 -3.18055e-015 5.0395 -0.09 2.4971 -3.54604e-007 -3.07488e-006 1.65204e-006 3.7921 -1.552 1.4806 -5.18723e-007 2.27999e-006 2.31511e-006 1.4655 -1.808 0.9609 -2.71874e-007 5.39358e-007 6.03241e-007 4.9141 -1.269 0.3591 -3.54604e-007 -3.07488e-006 1.65204e-006 3.1477 -1.685 0.8462 -5.18723e-007 2.27999e-006 2.31511e-006 0.8055 -1.585 0.7955 -2.71874e-007 5.39358e-007 6.03241e-007 -1.7069 20.075 5.0056 7.98673 -7.58025 15.1495 -13.6458 -0.047 -4.849 7.72131 19.6833 24.4608 -28.3255 -0.9759 2.2888 -2.78179 -0.415669 3.38252 -22.1583 -0.53 10.8316 7.54737 -8.46026 4.88943 -0.786 0.112 2.5817 -2.1402e-006 -3.12784e-007 2.51495e-006 -0.3601 -0.878 4.2331 -1.45567e-006 -8.28446e-007 -6.69379e-006 -1.8127 -1.216 2.2227 -2.08442e-006 4.87007e-007 6.43013e-006 -0.9571 1.114 1.7695 0 0 -0 -4.1246 0.487 4.1451 -2.1402e-006 -3.12784e-007 2.51495e-006 -3.4052 -1.454 2.7682 -1.45567e-006 -8.28446e-007 -6.69379e-006 -1.4531 -1.795 1.2713 -2.08442e-006 4.87007e-007 6.43013e-006 -5.6954 0.21 2.1184 -2.1402e-006 -3.12784e-007 2.51495e-006 -3.9766 -1.54 2.3863 -1.45567e-006 -8.28446e-007 -6.69379e-006 -1.4042 -1.926 1.125 -2.08442e-006 4.87007e-007 6.43013e-006 -2.0956 0.66 -0.3894 0 0 -0 -5.0395 -0.09 2.4971 -2.1402e-006 -3.12784e-007 2.51495e-006 -3.7921 -1.552 1.4806 -1.45567e-006 -8.28446e-007 -6.69379e-006 -1.4655 -1.808 0.9609 -2.08442e-006 4.87007e-007 6.43013e-006 -4.9141 -1.269 0.3592 -2.1402e-006 -3.12784e-007 2.51495e-006 -3.1477 -1.685 0.8462 -1.45567e-006 -8.28446e-007 -6.69379e-006 -0.8055 -1.585 0.7955 -2.08442e-006 4.87007e-007 6.43013e-006 8.367 -8.2066 0.5982 9.04613 -33.9745 19.4293 2.1923 -43.463 -0.4932 127.383 87.4467 -123.169 0.7333 -45.8593 -2.6451 -21.393 53.75 28.973 -8.367 -8.2066 0.5982 -9.07812 -33.9765 -19.4721 -2.1923 -43.463 -0.4931 -126.863 87.4047 122.659 -0.7333 -45.8593 -2.6451 21.5164 53.9324 -29.094 
1.73644 43.1926 11.4472 0 31.1256 -0 0 -1.186 -1.5018 0.245251 -0.383873 -0.249681 2.22045e-016 9.964 0.2134 0.488843 -0.768803 -0.497734 0 13.134 -3.2573 0.488843 -0.768805 -0.497734 0 20.686 -1.6905 -9.43061e-005 -1.42096 9.10574e-005 0 7.238 -0.1237 2.95801e-007 -1.07787 -3.53227e-007 1.7069 20.075 5.0056 -19.3538 16.0794 -32.6302 13.6458 -0.047 -4.849 -15.148 -5.56898 -0.121865 28.3255 -0.9759 2.2888 -21.4594 20.3779 -45.1464 22.1583 -0.53 10.8316 9.58581 -31.2898 -2.08209 0.786 0.112 2.5817 -1.59028e-015 0 -0 0.3601 -0.878 4.2331 2.71823e-007 -5.40584e-007 -6.0216e-007 1.8127 -1.216 2.2227 9.54166e-015 3.18055e-015 3.18055e-015 0.9571 1.114 1.7695 -1.59028e-015 0 -0 4.1246 0.487 4.1451 -1.59028e-015 -3.18055e-015 -0 3.4052 -1.454 2.7682 2.71823e-007 -5.40584e-007 -6.0216e-007 1.4531 -1.795 1.2713 1.11319e-014 9.54166e-015 9.54166e-015 5.6954 0.21 2.1184 -1.59028e-015 -3.18055e-015 -0 3.9766 -1.54 2.3863 2.71823e-007 -5.40584e-007 -6.0216e-007 1.4042 -1.926 1.125 1.11319e-014 9.54166e-015 9.54166e-015 2.0956 0.66 -0.3894 -1.59028e-015 0 -0 5.0395 -0.09 2.4971 -1.59028e-015 -3.18055e-015 -0 3.7921 -1.552 1.4806 2.71823e-007 -5.40584e-007 -6.0216e-007 1.4655 -1.808 0.9609 1.11319e-014 9.54166e-015 9.54166e-015 4.9141 -1.269 0.3591 -1.59028e-015 -3.18055e-015 -0 3.1477 -1.685 0.8462 2.71823e-007 -5.40584e-007 -6.0216e-007 0.8055 -1.585 0.7955 1.11319e-014 9.54166e-015 9.54166e-015 -1.7069 20.075 5.0056 7.09763 -8.11367 13.9595 -13.6458 -0.047 -4.849 7.95212 19.7929 25.3541 -28.3255 -0.9759 2.2888 -2.69752 -0.42639 4.23329 -22.1583 -0.53 10.8316 6.75662 -9.48995 4.67382 -0.786 0.112 2.5817 -3.47801e-006 4.57489e-007 3.6552e-006 -0.3601 -0.878 4.2331 6.36111e-015 -3.18055e-015 -0 -1.8127 -1.216 2.2227 2.90689e-006 -1.94241e-006 -3.16326e-006 -0.9571 1.114 1.7695 3.18055e-015 -3.18055e-015 -6.36111e-015 -4.1246 0.487 4.1451 -3.47801e-006 4.57489e-007 3.6552e-006 -3.4052 -1.454 2.7682 -3.53113e-031 3.18055e-015 6.36111e-015 -1.4531 -1.795 1.2713 2.90689e-006 -1.94241e-006 -3.16326e-006 -5.6954 0.21 2.1184 -3.47801e-006 4.57489e-007 3.6552e-006 -3.9766 -1.54 2.3863 -3.53113e-031 3.18055e-015 6.36111e-015 -1.4042 -1.926 1.125 2.90689e-006 -1.94241e-006 -3.16326e-006 -2.0956 0.66 -0.3894 3.18055e-015 -3.18055e-015 -6.36111e-015 -5.0395 -0.09 2.4971 -3.47801e-006 4.57489e-007 3.6552e-006 -3.7921 -1.552 1.4806 -3.53113e-031 3.18055e-015 6.36111e-015 -1.4655 -1.808 0.9609 2.90689e-006 -1.94241e-006 -3.16326e-006 -4.9141 -1.269 0.3592 -3.47801e-006 4.57489e-007 3.6552e-006 -3.1477 -1.685 0.8462 -3.53113e-031 3.18055e-015 6.36111e-015 -0.8055 -1.585 0.7955 2.90689e-006 -1.94241e-006 -3.16326e-006 8.367 -8.2066 0.5982 8.72882 -31.8559 18.939 2.1923 -43.463 -0.4932 111.368 87.8973 -107.208 0.7333 -45.8593 -2.6451 -21.3461 53.7116 28.907 -8.367 -8.2066 0.5982 -8.76115 -31.8579 -18.9825 -2.1923 -43.463 -0.4931 -111.083 87.8503 106.932 -0.7333 -45.8593 -2.6451 21.469 53.8941 -29.0277 
